<?xml version="1.0" encoding="utf-8"?>
<!-- Generator: Adobe Illustrator 16.0.0, SVG Export Plug-In . SVG Version: 6.00 Build 0)  -->
<!DOCTYPE svg PUBLIC "-//W3C//DTD SVG 1.1//EN" "http://www.w3.org/Graphics/SVG/1.1/DTD/svg11.dtd">
<svg version="1.1" id="Layer_1" xmlns="http://www.w3.org/2000/svg" xmlns:xlink="http://www.w3.org/1999/xlink" x="0px" y="0px"
	 width="25px" height="25px" viewBox="0 0 59.325 42.348" enable-background="new 0 0 59.325 42.348" xml:space="preserve">
<g>
	<path d="M54.29,42.048H5.032c-2.607,0-4.732-2.122-4.732-4.732V5.032C0.3,2.423,2.425,0.3,5.032,0.3H54.29
		c2.609,0,4.735,2.123,4.735,4.732v32.283C59.025,39.926,56.899,42.048,54.29,42.048z M5.032,2.192c-1.564,0-2.841,1.274-2.841,2.84
		v32.283c0,1.564,1.274,2.84,2.841,2.84H54.29c1.567,0,2.844-1.273,2.844-2.84V5.032c0-1.563-1.274-2.84-2.844-2.84H5.032z"/>
	<path d="M29.662,25.93c-1.26,0-2.52-0.416-3.478-1.252L1.986,3.588C1.592,3.243,1.55,2.647,1.895,2.253
		c0.345-0.398,0.943-0.436,1.337-0.094l24.197,21.09c1.212,1.056,3.258,1.055,4.466,0l24.19-21.088
		c0.393-0.346,0.988-0.307,1.338,0.093c0.345,0.396,0.302,0.991-0.092,1.335L33.139,24.676C32.181,25.514,30.92,25.93,29.662,25.93z
		"/>
</g>
</svg>
