<?xml version="1.0" encoding="utf-8"?>
<!-- Generator: Adobe Illustrator 16.0.0, SVG Export Plug-In . SVG Version: 6.00 Build 0)  -->
<!DOCTYPE svg PUBLIC "-//W3C//DTD SVG 1.1//EN" "http://www.w3.org/Graphics/SVG/1.1/DTD/svg11.dtd">
<svg version="1.1" id="Layer_1" xmlns="http://www.w3.org/2000/svg" xmlns:xlink="http://www.w3.org/1999/xlink" x="0px" y="0px"
	 width="20px" height="20px" viewBox="0 0 48 48" enable-background="new 0 0 48 48" xml:space="preserve">
<g>
	<path fill="#050606" d="M8.627,48C3.868,48,0,44.131,0,39.374V8.627C0,3.87,3.868,0,8.627,0h30.746C44.13,0,48,3.87,48,8.627
		v30.747C48,44.131,44.13,48,39.373,48H8.627z M8.627,2.311c-3.482,0-6.316,2.834-6.316,6.316v30.747
		c0,3.481,2.834,6.315,6.316,6.315h30.746c3.48,0,6.314-2.834,6.314-6.315V8.627c0-3.482-2.834-6.316-6.314-6.316H8.627z M24,36.253
		c-6.757,0-12.252-5.497-12.252-12.253S17.243,11.748,24,11.748c6.756,0,12.252,5.496,12.252,12.252S30.756,36.253,24,36.253z
		 M24,14.059c-5.481,0-9.941,4.459-9.941,9.941c0,5.48,4.46,9.941,9.941,9.941c5.479,0,9.939-4.461,9.939-9.941
		C33.941,18.518,29.481,14.059,24,14.059z"/>
	<circle fill="#050606" cx="37.416" cy="10.422" r="2.035"/>
</g>
</svg>
