<?xml version="1.0" encoding="utf-8"?>
<!-- Generator: Adobe Illustrator 16.0.0, SVG Export Plug-In . SVG Version: 6.00 Build 0)  -->
<!DOCTYPE svg PUBLIC "-//W3C//DTD SVG 1.1//EN" "http://www.w3.org/Graphics/SVG/1.1/DTD/svg11.dtd">
<svg version="1.1" id="Layer_1" xmlns="http://www.w3.org/2000/svg" xmlns:xlink="http://www.w3.org/1999/xlink" x="0px" y="0px"
	 width="22px" height="22px" viewBox="0 0 50 50" enable-background="new 0 0 50 50" xml:space="preserve">
<g>
	<g>
		<path d="M36.539,20.591c0-5.184-4.303-10.014-10.839-10.014c-8.138,0-12.236,5.955-12.236,10.92c0,3.007,1.113,5.683,3.507,6.678
			c0.393,0.163,0.743,0.005,0.856-0.438c0.077-0.307,0.266-1.081,0.348-1.4c0.116-0.438,0.07-0.59-0.245-0.977
			c-0.689-0.834-1.13-1.905-1.13-3.43c0-4.416,3.236-8.369,8.432-8.369c4.598,0,7.125,2.867,7.125,6.697
			c0,5.041-2.186,9.293-5.432,9.293c-1.793,0-3.132-1.512-2.702-3.365c0.516-2.215,1.514-4.604,1.514-6.203
			c0-1.43-0.753-2.625-2.312-2.625c-1.831,0-3.302,1.936-3.302,4.525c0,1.65,0.548,2.766,0.548,2.766s-1.875,8.107-2.203,9.525
			c-0.297,1.294-0.343,2.715-0.302,3.914c0.125,1.077,1.168,1.954,2.072,0.771c0.637-1.039,1.319-2.351,1.676-3.664
			c0.211-0.776,1.204-4.805,1.204-4.805c0.596,1.159,2.334,2.18,4.185,2.18C32.805,32.57,36.539,27.447,36.539,20.591z"/>
		<path d="M50,25C50,11.193,38.807,0,25,0S0,11.193,0,25s11.193,25,25,25S50,38.807,50,25z M2.271,25
			C2.271,12.448,12.447,2.271,25,2.271S47.729,12.447,47.729,25S37.553,47.727,25,47.727S2.271,37.553,2.271,25z"/>
	</g>
</g>
</svg>
