<?xml version="1.0" encoding="utf-8"?>
<!-- Generator: Adobe Illustrator 16.0.0, SVG Export Plug-In . SVG Version: 6.00 Build 0)  -->
<!DOCTYPE svg PUBLIC "-//W3C//DTD SVG 1.1//EN" "http://www.w3.org/Graphics/SVG/1.1/DTD/svg11.dtd">
<svg version="1.1" id="Layer_1" xmlns="http://www.w3.org/2000/svg" xmlns:xlink="http://www.w3.org/1999/xlink" x="0px" y="0px"
	 width="115.029px" height="83.503px" viewBox="0 0 115.029 83.503" enable-background="new 0 0 115.029 83.503"
	 xml:space="preserve">
<g>
	<path fill-rule="evenodd" clip-rule="evenodd" fill="#F7F7F7" d="M0.996,52.792C0.664,52.79,0.332,52.789,0,52.788
		c0-3.334,0-6.669,0-10.003c0.331-0.002,0.662-0.004,0.993-0.006C3.146,46.115,3.144,49.454,0.996,52.792z"/>
	<path fill-rule="evenodd" clip-rule="evenodd" fill="#EFEFEF" d="M0.996,52.792c-0.001-3.338-0.002-6.675-0.003-10.013
		C2.044,25.791,10.13,12.974,24.189,3.712c1.384-0.913,2.816-1.755,4.244-2.598c1.978-1.169,3.712-2.091,5.268,0.868
		c1.362,2.592,0.693,3.659-1.745,4.882c-7.821,3.924-13.381,10.073-17.489,17.806c-3.097,5.83-2.37,11.907-2.439,19.205
		c5.578-5.68,11.858-7.257,18.816-7.134c11.544,0.204,21.423,8.448,22.161,18.798c1.11,15.563-6.167,25.275-19.596,27.349
		C11.503,86.269,1.767,69.996,0.996,52.792z"/>
	<path fill-rule="evenodd" clip-rule="evenodd" fill="#EFEFEF" d="M115.029,56.666c-0.014,14.468-5.424,21.84-16.072,25.284
		c-11.687,3.779-23.635,0.595-29.667-8.854c-8.833-13.835-9.127-28.792-3.859-43.963C69.722,16.775,78.456,8.117,89.5,1.568
		c2.225-1.32,4.126-2.533,6.055,0.907c2.104,3.755-1.119,3.85-2.768,4.872C81.768,14.185,74.148,23.267,73.1,36.729
		c-0.136,1.741-0.876,3.987,0.916,5.124c1.711,1.084,2.931-0.879,4.305-1.666c9.081-5.204,18.191-4.639,27.045,0.348
		C112.88,44.768,114.768,52.078,115.029,56.666z"/>
</g>
</svg>
