<?xml version="1.0" encoding="utf-8"?>
<!-- Generator: Adobe Illustrator 16.0.0, SVG Export Plug-In . SVG Version: 6.00 Build 0)  -->
<!DOCTYPE svg PUBLIC "-//W3C//DTD SVG 1.1//EN" "http://www.w3.org/Graphics/SVG/1.1/DTD/svg11.dtd">
<svg version="1.1" id="Layer_1" xmlns="http://www.w3.org/2000/svg" xmlns:xlink="http://www.w3.org/1999/xlink" x="0px" y="0px"
	 width="22px" height="22px" viewBox="0 0 61.365 50" enable-background="new 0 0 61.365 50" xml:space="preserve">
<g>
	<g>
		<path d="M61.014,5.63c-0.313-0.313-0.834-0.417-1.25-0.313L57.68,6.046c1.25-1.459,2.084-3.021,2.605-4.479
			c0.207-0.521,0.104-0.938-0.209-1.25c-0.313-0.313-0.834-0.418-1.25-0.209c-2.916,1.25-5.416,2.291-7.5,2.916
			c0,0.104-0.104,0-0.207,0c-1.668-0.938-5.73-3.021-8.646-3.021C35.078,0.107,29.141,6.357,29.141,13.96v0.416
			C18.309,12.293,12.371,9.168,5.914,2.398L4.873,1.355l-0.625,1.25c-3.541,6.771-1.043,12.916,3.02,17.082
			c-1.875-0.313-3.125-0.938-4.27-1.875C2.58,17.5,2.06,17.396,1.539,17.708c-0.416,0.209-0.625,0.834-0.521,1.354
			c1.457,4.896,5.104,8.854,9.063,11.25c-1.875,0-3.438-0.209-5-1.25c-0.416-0.209-1.041-0.209-1.457,0.104
			C3.205,29.48,2.998,30,3.205,30.521c1.875,5.313,5.521,8.125,11.354,8.854c-3.02,1.771-6.979,3.229-13.123,3.333
			c-0.625,0-1.146,0.417-1.354,0.938c-0.209,0.625,0,1.146,0.416,1.563C4.248,48.23,12.58,50,22.891,50
			c18.332,0,33.332-16.354,33.332-36.455v-0.313c2.291-1.146,4.166-3.332,5.104-6.354C61.43,6.463,61.326,5.943,61.014,5.63z
			 M54.764,11.566l-0.625,0.209v1.771c0,18.956-14.061,34.372-31.248,34.372c-9.477,0-15.832-1.563-19.268-3.229
			c7.186-0.521,11.354-2.813,14.582-5.313l2.604-1.875h-3.125c-5.936,0-9.582-1.666-11.666-5.625
			c1.875,0.625,3.854,0.625,6.041,0.521c0.834-0.104,4.416-1.699,5.248-1.699l-2.436-0.487c-3.957-1.146-8.646-4.687-10.938-9.479
			c2.082,0.938,4.373,1.146,6.457,1.146h3.229l-2.604-1.875c-2.188-1.563-8.645-7.083-5.52-14.999
			c6.666,6.562,13.02,9.583,24.477,11.666l1.25,0.208v-2.916c0-6.458,5-11.77,11.248-11.874c2.396-0.104,6.355,2.083,7.5,2.708
			c0.625,0.313,1.25,0.416,1.875,0.208c1.563-0.521,3.438-1.25,5.521-2.083c-0.938,1.563-2.188,3.021-3.854,4.374
			c-0.416,0.313-0.52,0.938-0.313,1.459c0.209,0.521,0.834,0.729,1.354,0.521l4.063-1.354C57.889,9.275,56.742,10.838,54.764,11.566
			z"/>
	</g>
</g>
</svg>
