<?xml version="1.0" encoding="utf-8"?>
<!-- Generator: Adobe Illustrator 16.0.0, SVG Export Plug-In . SVG Version: 6.00 Build 0)  -->
<!DOCTYPE svg PUBLIC "-//W3C//DTD SVG 1.1//EN" "http://www.w3.org/Graphics/SVG/1.1/DTD/svg11.dtd">
<svg version="1.1" id="Layer_1" xmlns="http://www.w3.org/2000/svg" xmlns:xlink="http://www.w3.org/1999/xlink" x="0px" y="0px"
	 width="25px" height="25px" viewBox="0 0 58.559 43.02" enable-background="new 0 0 58.559 43.02" xml:space="preserve">
<g>
	<g>
		<path d="M46.914,0H11.646C5.224,0,0,5.24,0,11.681V31.34c0,6.441,5.224,11.68,11.646,11.68h35.268
			c6.421,0,11.645-5.24,11.645-11.68V11.681C58.559,5.24,53.335,0,46.914,0z M56.169,31.34c0,5.125-4.151,9.291-9.255,9.291H11.646
			c-5.104,0-9.257-4.168-9.257-9.291V11.681c0-5.122,4.151-9.291,9.257-9.291h35.268c5.104,0,9.255,4.169,9.255,9.291V31.34z"/>
		<path d="M39.868,21.078L23.311,11.38c-0.367-0.214-0.825-0.22-1.197-0.006c-0.371,0.213-0.604,0.608-0.604,1.038v19.395
			c0,0.428,0.23,0.824,0.603,1.037c0.186,0.105,0.39,0.158,0.595,0.158c0.211,0,0.417-0.057,0.604-0.166l16.557-9.695
			c0.366-0.213,0.591-0.605,0.591-1.031C40.459,21.687,40.234,21.292,39.868,21.078z M23.903,29.721V14.496L36.9,22.109
			L23.903,29.721z"/>
	</g>
</g>
</svg>
